<?xml version="1.0" encoding="UTF-8"?>
<svg width="36px" height="36px" viewBox="0 0 36 36" version="1.1" xmlns="http://www.w3.org/2000/svg" xmlns:xlink="http://www.w3.org/1999/xlink">
    <!-- Generator: Sketch 49 (51002) - http://www.bohemiancoding.com/sketch -->
    <title>Shape</title>
    <desc>Created with Sketch.</desc>
    <defs></defs>
    <g id="Page-1" stroke="none" stroke-width="1" fill="none" fill-rule="evenodd">
        <path d="M34,25 C31.6,25 29.2,24.6 26.8,23.8 C26.2,23.6 25.4,23.8 24.8,24.2 L20.4,28.6 C14.8,25.8 10.2,21 7.2,15.4 L11.6,11 C12.2,10.4 12.4,9.6 12,9 C11.4,6.8 11,4.4 11,2 C11,0.8 10.2,0 9,0 L2,0 C0.8,0 0,0.8 0,2 C0,20.8 15.2,36 34,36 C35.2,36 36,35.2 36,34 L36,27 C36,25.8 35.2,25 34,25 L34,25 Z M32,18 L36,18 C36,8 28,0 18,0 L18,4 C25.8,4 32,10.2 32,18 L32,18 Z M24,18 L28,18 C28,12.4 23.6,8 18,8 L18,12 C21.4,12 24,14.6 24,18 L24,18 Z" id="Shape" fill="#999999"></path>
    </g>
</svg>