<?xml version="1.0" encoding="utf-8"?>
<!-- Generator: Adobe Illustrator 22.1.0, SVG Export Plug-In . SVG Version: 6.00 Build 0)  -->
<svg version="1.1" id="Layer_1" xmlns="http://www.w3.org/2000/svg" xmlns:xlink="http://www.w3.org/1999/xlink" x="0px" y="0px"
	 viewBox="0 0 100 70.2" style="enable-background:new 0 0 100 70.2;" xml:space="preserve">
<style type="text/css">
	.st0{fill:#B2B2B2;}
</style>
<path class="st0" d="M98.6,11.7c0-4.8-3.9-8.7-8.7-8.7H43c-4.8,0-8.7,3.9-8.7,8.7v35.4c0,4.8,3.9,8.7,8.7,8.7h8.8v10c0,1.6,1.9,2.4,3,1.2
	L66,55.9c0,0,0-0.1,0.1-0.1H90c4.8,0,8.7-3.9,8.7-8.7L98.6,11.7L98.6,11.7z M64.1,15.1h4.6c0.5,0,1,0.4,1,1l-0.5,18.8
	c0,0.5-0.4,0.8-0.8,0.8h-3.8c-0.5,0-0.8-0.4-0.8-0.8l-0.5-18.8C63.2,15.5,63.6,15.1,64.1,15.1z M69.7,42.3c0,0.8-0.6,1.4-1.4,1.4
	h-3.7c-0.8,0-1.4-0.6-1.4-1.4v-2.4c0-0.8,0.6-1.4,1.4-1.4h3.7c0.8,0,1.4,0.6,1.4,1.4V42.3z M1.4,13.5c0-2.2,1.8-4,4-4H23
	c2.2,0,4,1.8,4,4l0,0c0,2.2-1.8,4-4,4H5.4C3.2,17.5,1.4,15.7,1.4,13.5z M26.9,29.4c0,2.2-1.8,4-4,4h-13c-2.2,0-4-1.8-4-4s1.8-4,4-4
	h13C25.2,25.4,26.9,27.2,26.9,29.4L26.9,29.4z M26.9,45.3L26.9,45.3c0,2.2-1.8,4-4,4H15c-2.2,0-4-1.8-4-4l0,0c0-2.2,1.8-4,4-4h8
	C25.2,41.3,26.9,43.1,26.9,45.3z"/>
</svg>
